{
	"asset":{
		"generator":"Khronos glTF Blender I/O v3.5.30",
		"version":"2.0"
	},
	"scene":0,
	"scenes":[
		{
			"name":"Scene",
			"nodes":[
				5
			]
		}
	],
	"nodes":[
		{
			"mesh":0,
			"name":"Pin_Base_0"
		},
		{
			"mesh":1,
			"name":"Pin_Stripes_0"
		},
		{
			"children":[
				0,
				1
			],
			"name":"Pin",
			"rotation":[
				-0.70710688829422,
				0,
				0,
				0.7071066498756409
			],
			"scale":[
				37.84953308105469,
				99.99999237060547,
				16.661479949951172
			],
			"translation":[
				0,
				15.131241798400879,
				0
			]
		},
		{
			"children":[
				2
			],
			"name":"RootNode"
		},
		{
			"children":[
				3
			],
			"name":"63c974a845974bfc84db049b824b8d5d.fbx",
			"rotation":[
				0.70710688829422,
				0,
				0,
				0.7071066498756409
			],
			"scale":[
				0.009999999776482582,
				0.010000000707805157,
				0.010000000707805157
			]
		},
		{
			"children":[
				4
			],
			"name":"Sketchfab_model",
			"rotation":[
				-0.70710688829422,
				0,
				0,
				0.7071066498756409
			]
		}
	],
	"materials":[
		{
			"doubleSided":true,
			"name":"Base",
			"pbrMetallicRoughness":{
				"baseColorFactor":[
					0.800000011920929,
					0.800000011920929,
					0.800000011920929,
					1
				],
				"metallicFactor":0,
				"roughnessFactor":0
			}
		},
		{
			"doubleSided":true,
			"name":"Stripes",
			"pbrMetallicRoughness":{
				"baseColorFactor":[
					0.800000011920929,
					0,
					0.0011750899720937014,
					1
				],
				"metallicFactor":0,
				"roughnessFactor":0
			}
		}
	],
	"meshes":[
		{
			"name":"Pin_Base_0",
			"primitives":[
				{
					"attributes":{
						"POSITION":0,
						"TEXCOORD_0":1,
						"NORMAL":2
					},
					"indices":3,
					"material":0
				}
			]
		},
		{
			"name":"Pin_Stripes_0",
			"primitives":[
				{
					"attributes":{
						"POSITION":4,
						"TEXCOORD_0":5,
						"NORMAL":6
					},
					"indices":7,
					"material":1
				}
			]
		}
	],
	"accessors":[
		{
			"bufferView":0,
			"componentType":5126,
			"count":854,
			"max":[
				1.3405816555023193,
				0.4991770088672638,
				19.67583656311035
			],
			"min":[
				-1.3405817747116089,
				-0.499176949262619,
				-0.8395054340362549
			],
			"type":"VEC3"
		},
		{
			"bufferView":1,
			"componentType":5126,
			"count":854,
			"type":"VEC2"
		},
		{
			"bufferView":2,
			"componentType":5126,
			"count":854,
			"type":"VEC3"
		},
		{
			"bufferView":3,
			"componentType":5123,
			"count":4032,
			"type":"SCALAR"
		},
		{
			"bufferView":4,
			"componentType":5126,
			"count":112,
			"max":[
				0.6254083514213562,
				0.23287604749202728,
				15.39392375946045
			],
			"min":[
				-0.625408411026001,
				-0.23287604749202728,
				13.194527626037598
			],
			"type":"VEC3"
		},
		{
			"bufferView":5,
			"componentType":5126,
			"count":112,
			"type":"VEC2"
		},
		{
			"bufferView":6,
			"componentType":5126,
			"count":112,
			"type":"VEC3"
		},
		{
			"bufferView":7,
			"componentType":5123,
			"count":384,
			"type":"SCALAR"
		}
	],
	"bufferViews":[
		{
			"buffer":0,
			"byteLength":10248,
			"byteOffset":0,
			"target":34962
		},
		{
			"buffer":0,
			"byteLength":6832,
			"byteOffset":10248,
			"target":34962
		},
		{
			"buffer":0,
			"byteLength":10248,
			"byteOffset":17080,
			"target":34962
		},
		{
			"buffer":0,
			"byteLength":8064,
			"byteOffset":27328,
			"target":34963
		},
		{
			"buffer":0,
			"byteLength":1344,
			"byteOffset":35392,
			"target":34962
		},
		{
			"buffer":0,
			"byteLength":896,
			"byteOffset":36736,
			"target":34962
		},
		{
			"buffer":0,
			"byteLength":1344,
			"byteOffset":37632,
			"target":34962
		},
		{
			"buffer":0,
			"byteLength":768,
			"byteOffset":38976,
			"target":34963
		}
	],
	"buffers":[
		{
			"byteLength":39744,
			"uri":"data:application/octet-stream;base64,"
		}
	]
}
